<svg xmlns="http://www.w3.org/2000/svg" height="40" data-name="kuketang.cn" viewBox="0 0 399.9 126.47"><path fill="#222" d="M327.67 62.26c2.87-4.09 8.91-4.92 8.32-10.67-.06-.74.44-.8.81-.99a67.5 67.5 0 0 1 10.1-4.27c.18-.06.36 0 .4.46-2.52 1.64-5.56 2.74-7.79 5.02 7.58-1.92 14.76-4.75 22.61-5.42 2.99-.45 3.83-.98 4.08-3.79.5-8.2-9.8-14.65-17.14-13.26-.85-.22-2.11.17-2.85.4.33 0 .84.2 1.36.41.29 1.21-.38 1.47-1.07 1.58-2.46.39-5.02-.4-7.49.21-.71.18-1.15-.75-.68-1.38.16-.22.33-.48.09-.58-.68-.31-2.7-.89-2.06.54.64 2.13-2.64.93-3.7 1.5-.7-.11-1.1-1.07-.1-1.26.68-.35 1.67.18 2.28-.76-5.93-.6-11.82 2.08-17.27 1.68 3.55-5.14 12.26-4.21 17.89-5.96 5.86 1.27 12.76-4.48 7.96-10.18-3.57-6.37-20.16-5.21-15.76-1.44 1.41.67 3.33 1.39 1.68 3.03-4.45 4.45-7.72 10.15-13.06 13.6-.14-7.98 7.91-21-.02-26.8-5.31-3.84-13.35-5.69-20.17-1.71-1.34.78-.99 1.91-.18 2.82 1.98 2.21 1.71 5.32 3.5 7.59-.24 2.79.99 10.07-2.09 11.1-3.25.73-6.47 1.56-9.73 2.25-5.13 2.55-5.05-7.36-8.66-3.8-2.21 2.96-5.17 5.87-3.9 9.94 1.38 4.99 8.37 12.74 12.89 6.87 3.6-4.1 4.94-11.6 10.3-13.47.86 2.51-1.47 5.51-.03 8.32.45 1.06.77 2.08-.89 2.25-1.19.42-.08 2.09-2.06 2.4a163.33 163.33 0 0 0-17.97 7.89c-2.27 1.72-2.33-6.16-7.81-8.25-1.77-1.94-10.76-1.66-6.21 1.73.57.5 1.66.99 1.2 1.68-1.2 8.01-3.27 16.05-7.13 23.27-.78 1.49-.46 2.84.54 3.75 2.39 2.16 4.03 4.93 6.37 7.13 6.2 3.96 8.57-1.03 9.48-6.41 3.38-4.8.54-12.76 7.16-15.08 5.19-2.48 10.73-4.06 16.09-6.09 2.12-.8 2.11-.83 2.78 1.36-2.38-5.84 52.4-15.46 46.82-8.67-17.66 18.52-7.8 1.09-27.3 5.72-6.33 1.57-12.13 4.3-17.59 7.65-1.61.99-2.73.78-3.8-.7-1.98-2.66-5.02-1.58-7.68-1.51-1.53-.09-1.81.68-1.54 1.96.92 6.19-2.84 12.93-1.29 18.79 2.61 3.63 9.4 8.98 13.25 4.71 4.16-5.53-2.03-14.57 2.96-18.45 23.2-10.94 19.63-4.59 3.47 8.18-9.14 8.16 9.76 11.89-15.41 16.8-.82.2-1.78.46-2.57.02-1.65-.9-3.09-.24-4.51.22-4.54 2.3 1.06 10.15 3.99 12.33 3.34 2.82 8.86-3.45 11.93-2.22.34.76-.5 1.13-1.08 1.45-9.25 4.4-18.74 7.9-28.89 9.56-8.05 2.82 1.53 11.42 5.36 13.95 2.08 1.47 4.25 1.88 6.57.94 15.11-5.19 31.58-6.22 47.56-5.7 5.89-.52-3.59 9.67-3.99 11.95 18.62-16.47 35.4 0 31.34-17.82-1.58-5.91-5.41-9.79-11.04-12.04-2.35-1.13-3.01 1.99-5.24 1.79-8.33.16-16.72-.58-25 .29-2.72.04-.59-3.3-.67-4.78-.26-6.78 16.27-6.52 17.34-10.64-.05-2.84-4.08-4.11-5.72-6.17-2.59-2.46-1.88-2.71-5-1.58-1.33.27-3.47 1.22-4.2-.45-.36-.88.14-1.28.73-1.64 1.97-1.72-.05-2.01 2.37-4.27m-30.93 32.94-.19-.52 9.82-4.64c1.18 5.51-6.06 4.97-9.64 5.16Zm40.16-70.87c1.33-.28 1 1.74-.33 1.18-.36-.16-1.11.4-1.12-.46 0-.9.94-.52 1.45-.72ZM356.28 40c3.49-8.51-11.88-5.64-16.49-5.37 2.62 1.11 5.42.18 8.15.83 3.36 1.38-6.67.4-7.53.81-9.47-.44-18.59 2.53-27.78 3.55 8.38-3.02 17.22-4.07 26.09-5.07-8.6-.36-16.8 1.65-25.03 3.24.23-2.28 14.79-3.59 17.8-4.26 3.92-.94 34.77-2.07 24.78 6.27Z"/><path fill="#ae3a23" d="M371.24 6.26c-11.86 8.07-7.68 17.99-7.68 37.89s-14.91 39.62-3.92 43.35c12.72 4.31 15.96 6.23 21 6.84 7.93.96 14.68-1.32 18.07-10.82 2.59-7.28.51-24.44-1.94-31.87-3.4-10.34-.63-17.62-2.57-30.42-.6-3.96-.24-7.1-3-13.07-2.16-4.66-12.95-5.49-19.96-1.89Z"/><path fill="#fff" d="M390.46 25.61c.27 0 .55.06.82.17.27.12.44.25.49.39.25.81.58 1.49.99 2.04.14.2.21.46.21.76s-.07.56-.21.76c-.14.2-.3.26-.49.17-1.21-.52-3.62-.78-7.23-.78-.66 0-1.21 0-1.66.02-.45.01-.74.05-.86.11a.73.73 0 0 0-.29.26c-.07.12-.11.38-.12.78l-.02 1.56c0 3.27-.06 5.27-.16 5.98-.11.71-.17 1.43-.17 2.17s.05 1.55.14 2.43c.1.88.14 1.35.14 1.41 0 .52-.16.78-.49.78-.11 0-.22-.02-.33-.04a92.24 92.24 0 0 0-5.1-1.28c-1.86-.42-3.21-1.03-4.03-1.83-.82-.8-1.23-1.27-1.23-1.41s.09-.22.27-.22.47.04.88.13c1.37.29 2.9.43 4.6.43.96 0 1.58-.13 1.87-.39.29-.26.47-.8.53-1.63.07-.83.1-1.8.1-2.91s-.04-2.29-.1-3.52-.13-1.92-.18-2.06a.65.65 0 0 0-.33-.35c-.16-.09-.34-.13-.51-.13s-.73.05-1.64.15c-.92.1-1.68.22-2.28.35l-1.4.28c-.33.06-.49.16-.49.3s.04.25.12.3c.96.64 1.44 1.22 1.44 1.74s-.25 1.29-.74 2.3c-.49 1.01-.87 1.52-1.13 1.52s-.43-.2-.51-.61a9.57 9.57 0 0 0-1.36-3.3c-.16-.26-.36-.63-.58-1.11-.22-.48-.67-.72-1.34-.72s-1.76.14-3.27.41c-1.51.28-2.54.63-3.08 1.06-.11.12-.25.17-.41.17s-.35-.33-.55-1c-.21-.67-.31-1.09-.31-1.26s.18-.28.53-.3c.58 0 1.63-.22 3.17-.65.46-.12 1.71-.3 3.72-.56 2.01-.26 3.66-.59 4.95-1 1.29-.41 2.95-.71 4.97-.91.36-.03.59-.12.7-.26.11-.14.17-.39.17-.74l.04-1.04c0-.49-.3-.74-.9-.74a10 10 0 0 0-1.73.37c-.93.25-1.68.37-2.24.37s-1.18-.27-1.85-.83a7.06 7.06 0 0 1-1.52-1.63c-.34-.54-.51-1.15-.51-1.85s.07-1.57.21-2.63.21-2.08.21-3.06-.09-1.81-.27-2.48c-.18-.67-.27-1.1-.27-1.3s.09-.35.27-.46c.18-.1.51-.15 1.01-.15 1.4 0 2.48-.14 3.25-.43 1.86-.72 3.43-1.09 4.71-1.09s2.4.26 3.39.78 1.48.94 1.48 1.26c0 .17-.14.44-.41.8-.27.36-.62.72-1.03 1.06s-.73.71-.95 1.09a3 3 0 0 0-.33 1.52l.04 1.09c0 .43-.36.71-1.07.83-1.4.23-2.73.53-3.99.89s-2.29.6-3.08.72c-.52.06-.78.48-.78 1.26 0 .58.14 1 .41 1.26.27.26.81.39 1.6.39s2.31-.12 4.54-.37 3.64-.69 4.21-1.33c.58-.64.93-1.72 1.07-3.26.05-.52.15-.78.29-.78s.28.23.43.7c.15.46.39 1.41.72 2.85.33 1.43.49 2.29.49 2.56s-.1.49-.29.65c-.19.16-.6.33-1.21.5-.62.17-1.25.29-1.91.35-.49.09-.74.43-.74 1.04s.06 1.05.18 1.33.35.41.68.41l3.08-.09c.58 0 1.33-.06 2.26-.17a16.07 16.07 0 0 0 2.3-.39Zm-16.81-9.82c.16 0 .86-.17 2.1-.5 1.23-.33 2-.77 2.3-1.33.3-.55.45-.96.45-1.24s-.09-.5-.27-.67a1 1 0 0 0-.72-.26c-.3 0-1.11.17-2.42.5-1.32.33-1.99.67-2.01 1-.03.33-.04.99-.04 1.98 0 .35.21.52.62.52Zm19.53 59.54c.27 0 .64.75 1.11 2.26.46 1.51.79 3.64.99 6.39.05.7.13 1.29.23 1.78s.14.86.14 1.11-.15.41-.45.5-1.33.13-3.1.13-3.08-.15-3.93-.46-1.71-.78-2.57-1.43-1.51-1.63-1.95-2.93c-.44-1.3-.66-2.77-.66-4.39s.05-2.91.17-3.87c.11-.96.16-1.55.16-1.78 0-.64-.12-.96-.37-.96s-.61.2-1.09.59c-.48.39-.86.93-1.15 1.61-.29.68-.47 1.38-.53 2.09s-.1 1.73-.1 3.06c0 .58-.2 1.15-.6 1.72a7.6 7.6 0 0 1-1.6 1.61c-.67.51-1.34.85-2.01 1.02-.67.17-1.08.33-1.23.46s-.23.3-.23.52.03.49.1.83c.07.33.1.6.1.8 0 .41-.12.61-.35.61s-.65-.15-1.25-.46c-.6-.3-1.34-.62-2.2-.93a6.77 6.77 0 0 1-2.34-1.48c-.7-.67-1.05-1.09-1.05-1.26s.1-.26.29-.26.67.08 1.44.24c.77.16 1.37.24 1.81.24s.73-.12.86-.35c.14-.23.2-.59.19-1.06l-.02-1.98.04-5.91c0-.46-.04-.77-.12-.91-.08-.14-.23-.22-.43-.22s-.57.08-1.09.24-.78.33-.78.5.07.35.21.52c.71.93 1.07 1.66 1.07 2.19s-.34 1.09-1.01 1.67c-.67.58-1.15.87-1.44.87s-.43-.2-.43-.61c0-.15.04-.4.12-.76s.12-.89.12-1.59c0-1.19-.19-1.78-.58-1.78s-.66.27-.84.8c-.18.54-.32.92-.43 1.15a9.57 9.57 0 0 0-1.03 3.56c0 .29.03.56.1.8.07.25.1.52.1.83s-.21.69-.62 1.15l-1.4 1.74a3.29 3.29 0 0 1-1.85 1.22c-.68.15-1.18.22-1.48.22s-.45-.08-.45-.24.14-.4.41-.72c1.84-2.23 3.04-4.21 3.6-5.93.56-1.72.84-2.82.84-3.28 0-.26-.14-.39-.41-.39s-.97.17-2.08.52a6.32 6.32 0 0 0-2.28 1.09c-.22.2-.45.3-.7.3s-.53-.31-.86-.93c-.33-.62-.49-1.06-.49-1.3s.04-.39.12-.43c.08-.04.25-.07.49-.07.6 0 1.47-.28 2.61-.85s2.07-.96 2.79-1.2c.73-.23 1.13-.46 1.21-.67.08-.22.15-.73.21-1.54.05-.81.08-1.59.08-2.33s-.04-1.38-.12-1.93c-.08-.55-.12-.98-.12-1.3s.1-.58.29-.78c.19-.2.66-.37 1.4-.5a25.7 25.7 0 0 0 4.32-1.54c.44-.17.99-.26 1.64-.26s1.4.12 2.22.35c.82.23 1.23.52 1.23.87s-.21.71-.62 1.09c-.22.17-.39.7-.51 1.56s-.28 3.24-.47 7.11-.29 7.11-.29 9.71c0 .61.1.91.29.91.36 0 1.05-.65 2.1-1.96 1.04-1.3 1.56-3.26 1.56-5.87 0-1.1-.06-1.93-.18-2.48s-.19-.93-.19-1.13.05-.35.14-.46c.1-.1.37-.2.82-.3.45-.1 1.05-.31 1.79-.63a12 12 0 0 1 4.97-1.04c1.48 0 2.22.32 2.22.96 0 .32-.22.73-.66 1.24a5.29 5.29 0 0 0-.95 1.52c-.19.51-.4 1.7-.64 3.59-.23 1.88-.35 3.2-.35 3.96 0 2.87 1.55 4.3 4.64 4.3.79 0 1.38-.16 1.75-.48.37-.32.64-.97.82-1.96.18-.98.31-2.58.39-4.78.05-.96.18-1.43.37-1.43ZM372.42 57.6l-4.19 3.09a4.1 4.1 0 0 1-2.43.96c-.25 0-.37-.13-.37-.39s.27-.7.8-1.33a51.2 51.2 0 0 0 3.88-5.56c.44-.74.81-1.11 1.13-1.11s.74.41 1.27 1.24c.53.83.8 1.43.8 1.83s-.3.82-.9 1.28Zm-4.4 12.78c.25 0 .86-.14 1.83-.41a6.84 6.84 0 0 0 1.77-.65c.21-.16.33-.38.39-.67.05-.29.1-.87.12-1.74l.04-2.43c0-.72-.06-1.19-.18-1.39-.12-.2-.39-.3-.8-.3-1.12 0-1.95.25-2.49.74-.54.49-.8.87-.8 1.13s.39.42 1.17.48c.78.06 1.29.18 1.54.37s.37.41.37.67-.06.5-.18.72-.28.67-.47 1.37c-.08.35-.27.52-.55.52s-.51-.24-.68-.72a2.8 2.8 0 0 0-.64-1.11c-.26-.26-.48-.39-.66-.39s-.27.32-.27.96l.04 2c0 .38.03.62.1.72.07.1.19.15.35.15Zm20.47-9.74c.49 0 .83.25 1.01.74.18.49.53 1.19 1.05 2.09.16.26.25.51.25.74 0 .41-.19.61-.58.61l-.9-.04c-1.56 0-2.64.12-3.25.35-1.15.46-2.47.8-3.95 1-.55.09-1.21.25-1.97.5a5.4 5.4 0 0 0-1.62.74c-.32.25-.58.37-.8.37-.47 0-.84-.43-1.11-1.28-.27-.85-.41-1.45-.41-1.78s.08-.56.25-.7c.17-.13.51-.22 1.03-.28 1.32-.12 3.04-.48 5.16-1.09 2.12-.61 3.81-1.2 5.08-1.78.27-.12.54-.17.78-.17Zm-3.04-3.17c0 1.07-.26 1.61-.78 1.61-.22 0-.63-.13-1.23-.39s-1.08-.54-1.44-.85c-.36-.3-.6-.58-.72-.83s-.19-.78-.19-1.61.15-1.56.45-2.22.6-.98.88-.98.47.16.55.48.51.84 1.29 1.56c.78.72 1.17 1.8 1.17 3.22Z"/><path fill="#222" d="M120.4 76.66c-9.65 2.44-19.57 4.46-28.59 8.88-3.21 2.13-4.69-3.28-8.33-3.34-10.29-2.48-10.19 22.31-10.54 28.92.3 5.6 8.76 7.93 13.41 9.2 9.06 1.03 2.96-11.92 3.44-16.9-.78-4.5.29-7.49 4.58-9.12 1.68-.51 23.96-8.83 20.5-4.49-4.27 6.73-10.61 12.28-15.68 17.82-.75.36-1.02.52-1.63 1.37-.36.51-.65 1.56-.38 2.28 1.48 3.95 2.17 9.57 7.42 8.79 2.88-.17 29.06-9.41 19.99-12.25-2.33-.78-10.54 2.15-12.14.09 1.42-4.27 15.08-11.71 18.42-15.81 6.11-6.09-4.35-15.24-10.47-15.43ZM62.32 16.5c1.39-.18 1.9-.45 2.25-1.44-1.39-.24-2.47-.4-3.49.53.69.6 1.98-.11 1.24.92Z"/><path fill="#222" d="M92.36 78.65c1.46-.43.64-3.03 2.5-2.86 1.4.26 2.42-1.97 3.97-.32.6-.29 1.17-1.39 2.27-.67l-5.28 4.97c3.67-1.44 6.49-4.44 10-6.24 5.84-4.27 14.83-3.46 19.96-8.22-.88-1.43-2.38-.87-3.93-1.22 6.25-2.68.91-1.66.28-5-7.58-2.47-16.86 6.4-12.24-5.29.56-2.2.91-4.53 3.55-5.29.07-.02.29-.16.35-.57l-.25.09h-.02c-.46.15-1.04.28-1.17-.33-.18-1.31 2.37.24 2-1.25-.44-1.26-1.63.88-2.14-.16 3.84-4.18 12.07-2.97 17.45-6.05-1.77-.32-2.45-1.65-2.42-2.47.04-1.36-.94-1.7-1.51-1.68-2.97.07-5.9-1.08-8.91-.53-6.73 2.78 4.42-18.29-.22-22.78-3.53-4.98-11.27-8.51-16.43-4.43-3.86 2.59-3.65 2.2.11 4.9 4.66 1.55-1.63 20.89-1.65 25.81-.12.8-.28 1.61-1.17 1.92-2.27.47-4.75 2.31-6.98 1.93 1.16-5.01 6.43-9.54.7-14.4-2.81-2.96-7.15-5.19-11-2.99-.82.42-1.18.91-.51 1.71 1.31 1.59 1.15 3.31.7 4.98-1.58 6.09-4.52 11.6-7.74 16.85.3 19.37 9.52 11.28 21.17 6.74 1.29-.94 2.14-.04 1.7 1.4-.64 2.34.15 5.95-2.88 6.63-6.39 1.96-13.03 3.11-19.5 4.81-2.72.72-2.83.56-2.45-2.33.05-5.51 3.94-12.97-1.19-17.1-6.98-6.68-17.47 1.23-14.34-6.68.96-3.79.31-5.75-2.89-8.22-2.17-1.78 2.84-2 3.94-2.73-3.67.35-7.15 1.67-10.89 1.66 9.82-4.5 20.59-6.15 30.86-9.29a84.45 84.45 0 0 0-28.47 2.11c1.77-1.31 4.05-1.28 5.79-2.63l-7.11.62-.05-.16 5.05-1.68c-.56-.58-.99.2-1.39-.39 1.99-1.22 4.61.48 6.78-.62.62-.16 1.3-.44 1.53.46-.05 1.83-2.95.47-4.24 1.85 2.54.34 4.39-.57 6.49-.97-.68-.33-1.77.41-1.58-1.1.13-1.02.52-1.61 1.49-1.55 2.95.43 4.65-1.27 7-2.87-1.32.03-2.1-.15-2.96.79-.73.79-2.5-.03-3.75.46-1.42.82-2.71-1.29-.98-1.96.22-.17.59-.24.46-.8-13.2.25-36.58 9.48-49.85 6.8-2.9-.77-6.67.29-7.49 2.25-4.64 6.79-1.07 21.21 8.39 21.37 2.72.47 17.44-7.21 18.33-3.08.59 4.7 2.41 12.15-2.85 14.47-2.03 1.34-2.39-3.42-5.7-3.82-4.67-1.25-10.67-4.08-9.8 3.43C5.13 72.9 4.33 91.99.35 108.6c-1.94 5.85 4.67 8 8.69 10.54 3.51 2.22 9.97.54 10.07-4.89-.28-6.56 2.4-13.48 1.25-19.85-.97-1.63-.44-2.47.55-3.52C27.04 85 27.94 76.22 32.14 69.2c-.52 3.72-1.99 7.15-2.88 10.76 1.03-1.01 1.14-2.48 1.91-4.08.41 4.24-3.55 6.39-1.9 10.71 4.62-6.8 7.01-14.71 8.91-22.71.78-2.17.31-7.19 3.7-6.55 1.06.29.34 1.48.2 2.25-.68 6.55-4.2 13.12-.85 19.56 1.01 1.7 2.16 2.56 4.1 2.43 14.92-1.57 8.42.37 8.91 17.81-.1 1.93-4.28 3.98-5.94 2.83-1.12-1.35-6.66-3.64-4.75-5.44 1.7-2 13.3-6.36 7.77-8.85-.69-.3-1.46-.42-1.95-1.12-.37-.53.16-2.13-1.42-1.27-.75.41-1.79-.42-2.42.48-5.79 2.37-12.48 4.24-18.82 4.61-7.1-.66 2.62 13.18 7.5 7.99.82-.49 1.8-.96 2.92-.83-2.56 4.21-7.69 7.24-12.04 9.8-3.5 1.32-2.26 5.4-.57 7.8 4.7 8.83 16.38-3.07 22.46-5.8.57-.36 1.25-1.09 1.94-.18 3.77 4.02 3.61 10.03 8.67 12.88 3.02 2.77 4.83-.81 7.08-2.24 6.33.66.73-38.35 6.69-37.29 3.63 1.3 21.87-8.97 21.02-4.1ZM116.26 65c-1.29 1.38-1.66 2.74-4 2.38-1.56-.24-2.99.69-3.98.43 2.12-2.09 4.87-2.1 7.98-2.81Zm-8.06 2.83c-.94 1.63-2.97 1.41-4.33 2.34-.22.15-.78.16-.95-.3-.58-1.89 4.09-2.22 5.29-2.04Zm-8.71 2c.16 1.3-.34 1.91-1.31 2.18-1.52-.3.36-1.99 1.31-2.18ZM27.77 67.1c-2.01 6.63-1.98 15.29-6.43 20.55.14-7.07 2.53-14.42 3.98-21.4 1.62-3.44 4.21-3.06 2.45.85Zm16.54-19.97c-.02 1.45-1.91 2.66-3.19 2.09-.81-1.04.34-3.1.38-4.23.13-4.71-8.63-6.43-4.53-7.3 10.32-5.21 8.31 1.89 7.34 9.43Zm-.16 56.63c-.09 1.34-7.4 2.55-9.08 3.07-3.13-.33 3.76-5.22 4.45-6.45.87-1.26 4.95 2.53 4.63 3.38Zm-2.62-4.21c-1.37-3.15 5.39 2.03 5.58 3.06-.98 1.9-4.17-2.51-5.58-3.06Zm11.93 7.48c-.83.03-1.8-.81-1.84-1.63.04-1.72 2.82-2.73 2.52-.22-.32.58.55 1.81-.68 1.86Zm3.26-49.24c-.18 4.64-.56 9.26-.88 13.89.12 1.49-2.26 1.17-2.88 1.26-3.71-.03-3.88-.19-3.33-3.29.74-4.18 1.66-8.33 2.34-12.52.32-3.2 5.36-2 4.75.66Zm2.56-6.33c-1.94.12-4.19 1.84-5.94 1.27 1.86-3.7 14.4-3.98 15.7 1.26-3.3-1.87-5.87-3.78-9.76-2.54Zm35.85 13.7C92.1 67.53 86.6 67.97 82.58 69c3.67-2.12 8.64-3.67 12.55-3.84Zm-7.6 8.72c.24-1.23 2.98-1.29 3.64-1.81 1.37-.34 1.98.8.83 1.16-1.35.11-3.41 1.67-4.46.65Z"/><path fill="#222" d="M119.18 44.36c-1.25.14-1.18 2.36-2.95 1.1-1.47.03-.24 2.81-2.22 2.51-.22.39 1.52.33 1.9.04 2.04-1.1 4.44-1.1 6.57-1.92 1.27-1.14 4.93.52 4.7-1.85-1.91-2.79-5.31 1.22-8 .12ZM59.57 30.14c-.31 1.16 2.93-.06 2.97-.58-.98-.4-2.37-.35-2.97.58ZM71.8 16.05c-1.12-.45-1.89.35-2.8.44 1.06.87 1.98.87 2.8-.44Zm-1.07 4.31c-.5.08-.99.03-1.38.09a8.93 8.93 0 0 0-3.55 1.21c.91-.23 1.9-.2 2.83-.35.51.05.74.08 1.08-.03.79-.25 1.6.57 1.79-.44.14-.72-.63-.51-.77-.48Zm83.68 101.41c2.72-1.62 5.94-2.52 7.82-5.3-2.87 1.42-5.88 2.62-7.82 5.3Zm-7.43-102.86c-8.07-4.74.71 11.72 2.95 13.63 1.86 2.05-1.06 3.72-1.87 5.56 6.48-3.81 11.82 2.04 15.73-2.11 6.26-2.97 4.57-8.58 1.67-13.51-.55-4.29-19.13-8.03-22.91-7.14 1.3 1.69 3.12 2.25 4.44 3.57Z"/><path fill="#222" d="M261.5 98.76c-8.48-13.15-25.83-10.1-39.21-12.1-3.69.15-1.22-6.4-1.35-8.7.61-4.04 3.14-2.1 5.71-3.66 2.04-1.24 2.75.98 3.89-.38.34-.48.85-.91 1.34-.85 5.16-.3 9.5-3.26 14.53-4.27.45.03.68-.69.16-.77-.85-.05-.72.16-1.46-.05-.16-.04-.73-.41-.88-.19q-.59.86-1.38.62c-4.81-1.2-10.58 3.63-15.11 2.48-.23-.74.51-.76.92-.86 3.73-.96 7.43-1.97 11.08-3.19 3.29-1.1 6.73-1.8 10.1-2.71.36-.1 1.07-.12.86-.7-.55-.96-2.07.5-2.93.51-1.59.16-.24-1.83.78-1.53 1.7.14 2.66-1.34 4.17-1.65-6.55.47-12.9 1.77-19.32 3.03-2.98.16.51-2.72.88-3.86.97-2.04-1.66-1.19-1.45-2.52.24-.78.8-.42 1.37-.27 2.02.76 2.1-.35 1.41-1.78.04-.78-2.59-2.6.61-2.54 1.8-.19.88-1.99 2.05-3.06.82-1.75 3.38-2.44 2.87-5 2.78-1.43 2.47-4.86 4.44-5.95l2.43-4.04c2.23-3.97 5.48-7.44 4.88-12.64-6.69-23.36-38.48-8.23-52.29.5-1.29.87-2.02.9-2.75-.86-2.7-5.9-11.41-6.79-16.35-3.34-1.13.74-1.66 1.41-1.54 2.75.52 9.81 2.17 20.09-.67 29.62-.66 3.85 4.76 12.12 8.98 12.46 2.83-.34 4.17 3.3 7 2.37 3.32-.36 6.33-3.29 9.39-3.22 2.96 3.7-19.37 11.06-22.67 11.15-3.29.02-6.68 2.91-9.73 2.08-.01-1.94 2.31-3.69 2.23-5.99l-3.35 5.44c-.12-2.25 1.51-3.75 1.73-6.11-3.71 3.95-6.4 9.67-10.71 12.42.57-7.8 3.57-16.69 6.07-24.46 3.17-5.89-4.42-9.13-8.41-11.93-1.06-.79-2.26-.68-3.34 0-7.77 4.12-15.57 9.84-24.59 10.4-4.91.21 1.34 9.02 3.41 10.49 5.17 5.01 9.75-2.27 14.73-2.61-.86 11.57-3.46 24-5.55 35.64-1.24 2.36-1.08 4.23 1.11 5.76 4 1.83 7.69 8.56 12.36 6.61 7.41-7.81 8.07-20.62 12.96-29.56 1.27-.09 1.7 1.68 2.36 2.71 2.35 3.69 5.82 5.19 9.9 4.16 1.34-.04 3.66-1.97 4.61-.86 1.06 2.42-10.31 9.91-10.42 12.38-1.73.24-1.49 2.4-2.69 3.16 1.36-.67 3.45-.65 3.12-2.92 3.06.06 4.39-4.24 7.31-5.37-3.71 5.67-9.45 10.24-14.85 14.43-1.41 1.63-6.21 3.24-5.24 5.64.17.38.66.59.93.23 1.06-1.43 3.1-1.3 4.24-2.63.69-.8 1.8-.99 3.01-1.17-2.21 2.56-5.53 4.46-8.55 6.2-.52.25-1.11.6-.89 1.16-1.07.1-1.48 1.15-2.17 1.71 4.67-2.32 9.5-5.3 13.92-8.02 2.51-1.17 6.24-6.71 8.84-5.3.25.48-.14.65-.5.76-.79.24-1.26.8-1.74 1.44-.62.82-1.32 1.77-2.23 2.12-1.81.71-2.48 2.71-4.3 3.32-.19.07-.32.36-.13.63 2.76-1.02 5.04-3.65 7.88-5.1 2.72-2.12 5.36-4.89 8.4-7.04 1.15-.64 1.67-2.24 3.34-2.06-.98-2.62 5.44-5.71 6.73-8.23.53-.81 1.56-.26 1.31.63-1.16 6.69 2.69 13.85-7 8.32 1.31 1.37 3.02 2.09 4.61 3.01.52.3 1.49.43 1.18 1.19-1.94.92-5.85-2.91-8.26-3.75 4.72 6.89 7.65 14.91 14.44 20.12 2.38 3.92 9.23-.74 10.45-3.46 2.59-4.08-.55-33.26 3.3-30.7 4.12 3.65 10.49 5.48 13.9 9.51-2.34 1.76-6.01 1.08-8.89 3.39 2.55.15 4.64-.71 5.94 1.65 5.14.92 10.33 2.07 15.28 4.17 6.16 4.56 17.96.59 13.41-8.42ZM159.56 78.09c-.48 2.52-.67 5.13-1.99 7.39.17-5.17 1.62-10 2.83-14.89l.59.12-1.43 7.38Zm1.83-.61 1.56-6.8.46.12-1.49 6.82-.53-.14Zm3.7 8.86c.67-.81 4.06-9.69 4.33-6.12-1.11 2.26-2.22 4.52-4.33 6.12Zm22.62 17.43c.97-1.64 2.19-2.35 3.41-3.05-.9 1.06-1.63 2.32-3.41 3.05Zm15.66-33c-4.64 1.29-9.32 2.49-14.13 3.75 3.01-3.33 8.67-4.5 12.48-7.26 3-2.7 3.68 2.15 1.66 3.51Zm-2.21-17.35c-2.04.19-1.04-1.37-1.32-2.14-.38-1.86.11-2.99 2.12-3.3 1.24.09 4.39-2.83 4.27-.24-.34 3.38-1.29 5.48-5.07 5.68Zm5.72-16.53c-.8 1.79-3.91 1.66-5.57 2.61-2.59 1.22-2.15-1.28-2.32-3.12-.65-7.48 8.18-15 6.98-9.96-1.59 1-.5 2.31 0 3.17 1.4 2.42.86 4.86.92 7.3Zm14.38 28.42c-.42-2.04 2.02-1.38 2.22.14.07 1.13-2.51 1.08-2.22-.14Zm1.02-15.53c-.06-1.52 2.32-2.11 3.79-2.63-.68 1.19-1.14 2.27-2.33 2.7-.5.18-1.09.56-1.46-.07Zm3.62 22.23c-.99-.36-1.67-.43-2.42.35-.33.42-2.14.22-1.88-.64.99-1.5 3.2-.09 4.44-1.47 1.38-.89 1.08 2.43-.14 1.76Zm2.72-14.69c-2.91 1.37 1.83-4.14 2.31-4.84-.34 1.85-1.3 3.36-2.31 4.84Zm2.52-20.66c-.92 1.79-2.52 3.47-2.69 5.35-.27 3.11-2.95 2.64-4.52 3.75-3.02 1.51-.61-5.23-1-6.2-.76-1.3 10.45-6.17 8.2-2.9Zm1.6-3.46c-1.66 1.91-4.75 1.63-7.02 2.48l-.24-.49c.93-.82 7.81-4.53 7.27-1.99Zm-21.08-11.17c-2.28-1.01 5.25-3.6 6.22-4.08 11.65-4.53 36.57-9.99 23.69 10.88l-.47-.16c.77-4.12 6.39-11.55-.38-13-4.45-1.33-8.53 1.06-12.71.95-1.44 2.68-4.71 1.72-6.82 3.14-3.39 1.39-5.81 3.47-9.53 2.28Zm4.85 1.19c1.31-2.14 23.08-8.42 20.28-1.94-3.34 10.03-1.37 9.03-11.66 11.26-3.75 1.3.31-4.32-8.62-9.32Z"/></svg>